<?xml version="1.0" encoding="UTF-8"?>
<svg xmlns="http://www.w3.org/2000/svg" viewBox="0 0 850 1100">
  <!-- Background -->
  <rect width="850" height="1100" fill="#FAFAFA"/>
  
  <!-- Header -->
  <rect x="0" y="0" width="850" height="100" fill="#A29BFE"/>
  <text x="425" y="55" font-family="Arial, sans-serif" font-size="36" font-weight="bold" fill="#FFFFFF" text-anchor="middle">30-DAY HABIT TRACKER</text>
  <text x="425" y="85" font-family="Arial, sans-serif" font-size="16" fill="#E0E0E0" text-anchor="middle">Month: _______________ | Year: _______</text>
  
  <!-- Habit 1: Exercise -->
  <g font-family="Arial, sans-serif">
    <rect x="50" y="120" width="750" height="50" fill="#D4A574" rx="10"/>
    <text x="70" y="152" font-size="16" font-weight="bold" fill="#FFFFFF">🏃 Exercise (30 min)</text>
    <text x="750" y="152" font-size="14" fill="#FFFFFF" text-anchor="end">Goal: 20 days</text>
  </g>
  <g>
    <rect x="60" y="180" width="30" height="30" fill="#FFFFFF" stroke="#E0E0E0" rx="3"/>
    <rect x="95" y="180" width="30" height="30" fill="#FFFFFF" stroke="#E0E0E0" rx="3"/>
    <rect x="130" y="180" width="30" height="30" fill="#00B894" rx="3"/>
    <rect x="165" y="180" width="30" height="30" fill="#00B894" rx="3"/>
    <rect x="200" y="180" width="30" height="30" fill="#00B894" rx="3"/>
    <rect x="235" y="180" width="30" height="30" fill="#FFFFFF" stroke="#E0E0E0" rx="3"/>
    <rect x="270" y="180" width="30" height="30" fill="#00B894" rx="3"/>
    <rect x="305" y="180" width="30" height="30" fill="#00B894" rx="3"/>
    <rect x="340" y="180" width="30" height="30" fill="#00B894" rx="3"/>
    <rect x="375" y="180" width="30" height="30" fill="#00B894" rx="3"/>
    <rect x="410" y="180" width="30" height="30" fill="#FFFFFF" stroke="#E0E0E0" rx="3"/>
    <rect x="445" y="180" width="30" height="30" fill="#00B894" rx="3"/>
    <rect x="480" y="180" width="30" height="30" fill="#00B894" rx="3"/>
    <rect x="515" y="180" width="30" height="30" fill="#00B894" rx="3"/>
    <rect x="550" y="180" width="30" height="30" fill="#00B894" rx="3"/>
    <rect x="585" y="180" width="30" height="30" fill="#FFFFFF" stroke="#E0E0E0" rx="3"/>
    <rect x="620" y="180" width="30" height="30" fill="#00B894" rx="3"/>
    <rect x="655" y="180" width="30" height="30" fill="#00B894" rx="3"/>
    <rect x="690" y="180" width="30" height="30" fill="#00B894" rx="3"/>
    <rect x="725" y="180" width="30" height="30" fill="#00B894" rx="3"/>
    <rect x="760" y="180" width="30" height="30" fill="#FFFFFF" stroke="#E0E0E0" rx="3"/>
  </g>
  
  <!-- Habit 2: Read -->
  <g font-family="Arial, sans-serif">
    <rect x="50" y="230" width="750" height="50" fill="#74B9FF" rx="10"/>
    <text x="70" y="262" font-size="16" font-weight="bold" fill="#FFFFFF">📚 Read (20 pages)</text>
    <text x="750" y="262" font-size="14" fill="#FFFFFF" text-anchor="end">Goal: 25 days</text>
  </g>
  <g>
    <rect x="60" y="290" width="30" height="30" fill="#00B894" rx="3"/>
    <rect x="95" y="290" width="30" height="30" fill="#00B894" rx="3"/>
    <rect x="130" y="290" width="30" height="30" fill="#00B894" rx="3"/>
    <rect x="165" y="290" width="30" height="30" fill="#00B894" rx="3"/>
    <rect x="200" y="290" width="30" height="30" fill="#00B894" rx="3"/>
    <rect x="235" y="290" width="30" height="30" fill="#00B894" rx="3"/>
    <rect x="270" y="290" width="30" height="30" fill="#00B894" rx="3"/>
    <rect x="305" y="290" width="30" height="30" fill="#00B894" rx="3"/>
    <rect x="340" y="290" width="30" height="30" fill="#00B894" rx="3"/>
    <rect x="375" y="290" width="30" height="30" fill="#00B894" rx="3"/>
    <rect x="410" y="290" width="30" height="30" fill="#00B894" rx="3"/>
    <rect x="445" y="290" width="30" height="30" fill="#00B894" rx="3"/>
    <rect x="480" y="290" width="30" height="30" fill="#FFFFFF" stroke="#E0E0E0" rx="3"/>
    <rect x="515" y="290" width="30" height="30" fill="#00B894" rx="3"/>
    <rect x="550" y="290" width="30" height="30" fill="#00B894" rx="3"/>
    <rect x="585" y="290" width="30" height="30" fill="#00B894" rx="3"/>
    <rect x="620" y="290" width="30" height="30" fill="#00B894" rx="3"/>
    <rect x="655" y="290" width="30" height="30" fill="#FFFFFF" stroke="#E0E0E0" rx="3"/>
    <rect x="690" y="290" width="30" height="30" fill="#00B894" rx="3"/>
    <rect x="725" y="290" width="30" height="30" fill="#00B894" rx="3"/>
    <rect x="760" y="290" width="30" height="30" fill="#00B894" rx="3"/>
  </g>
  
  <!-- Habit 3: Meditate -->
  <g font-family="Arial, sans-serif">
    <rect x="50" y="340" width="750" height="50" fill="#00B894" rx="10"/>
    <text x="70" y="372" font-size="16" font-weight="bold" fill="#FFFFFF">🧘 Meditate (10 min)</text>
    <text x="750" y="372" font-size="14" fill="#FFFFFF" text-anchor="end">Goal: 20 days</text>
  </g>
  <g>
    <rect x="60" y="400" width="30" height="30" fill="#FFFFFF" stroke="#E0E0E0" rx="3"/>
    <rect x="95" y="400" width="30" height="30" fill="#00B894" rx="3"/>
    <rect x="130" y="400" width="30" height="30" fill="#00B894" rx="3"/>
    <rect x="165" y="400" width="30" height="30" fill="#FFFFFF" stroke="#E0E0E0" rx="3"/>
    <rect x="200" y="400" width="30" height="30" fill="#00B894" rx="3"/>
    <rect x="235" y="400" width="30" height="30" fill="#00B894" rx="3"/>
    <rect x="270" y="400" width="30" height="30" fill="#00B894" rx="3"/>
    <rect x="305" y="400" width="30" height="30" fill="#00B894" rx="3"/>
    <rect x="340" y="400" width="30" height="30" fill="#FFFFFF" stroke="#E0E0E0" rx="3"/>
    <rect x="375" y="400" width="30" height="30" fill="#00B894" rx="3"/>
    <rect x="410" y="400" width="30" height="30" fill="#00B894" rx="3"/>
    <rect x="445" y="400" width="30" height="30" fill="#00B894" rx="3"/>
    <rect x="480" y="400" width="30" height="30" fill="#00B894" rx="3"/>
    <rect x="515" y="400" width="30" height="30" fill="#00B894" rx="3"/>
    <rect x="550" y="400" width="30" height="30" fill="#00B894" rx="3"/>
    <rect x="585" y="400" width="30" height="30" fill="#FFFFFF" stroke="#E0E0E0" rx="3"/>
    <rect x="620" y="400" width="30" height="30" fill="#00B894" rx="3"/>
    <rect x="655" y="400" width="30" height="30" fill="#00B894" rx="3"/>
    <rect x="690" y="400" width="30" height="30" fill="#00B894" rx="3"/>
    <rect x="725" y="400" width="30" height="30" fill="#00B894" rx="3"/>
    <rect x="760" y="400" width="30" height="30" fill="#00B894" rx="3"/>
  </g>
  
  <!-- Habit 4: Drink Water -->
  <g font-family="Arial, sans-serif">
    <rect x="50" y="450" width="750" height="50" fill="#0984E3" rx="10"/>
    <text x="70" y="482" font-size="16" font-weight="bold" fill="#FFFFFF">💧 Drink 8 glasses water</text>
    <text x="750" y="482" font-size="14" fill="#FFFFFF" text-anchor="end">Goal: 30 days</text>
  </g>
  <g>
    <rect x="60" y="510" width="30" height="30" fill="#00B894" rx="3"/>
    <rect x="95" y="510" width="30" height="30" fill="#00B894" rx="3"/>
    <rect x="130" y="510" width="30" height="30" fill="#00B894" rx="3"/>
    <rect x="165" y="510" width="30" height="30" fill="#00B894" rx="3"/>
    <rect x="200" y="510" width="30" height="30" fill="#00B894" rx="3"/>
    <rect x="235" y="510" width="30" height="30" fill="#00B894" rx="3"/>
    <rect x="270" y="510" width="30" height="30" fill="#00B894" rx="3"/>
    <rect x="305" y="510" width="30" height="30" fill="#00B894" rx="3"/>
    <rect x="340" y="510" width="30" height="30" fill="#00B894" rx="3"/>
    <rect x="375" y="510" width="30" height="30" fill="#00B894" rx="3"/>
    <rect x="410" y="510" width="30" height="30" fill="#00B894" rx="3"/>
    <rect x="445" y="510" width="30" height="30" fill="#00B894" rx="3"/>
    <rect x="480" y="510" width="30" height="30" fill="#00B894" rx="3"/>
    <rect x="515" y="510" width="30" height="30" fill="#00B894" rx="3"/>
    <rect x="550" y="510" width="30" height="30" fill="#00B894" rx="3"/>
    <rect x="585" y="510" width="30" height="30" fill="#00B894" rx="3"/>
    <rect x="620" y="510" width="30" height="30" fill="#00B894" rx="3"/>
    <rect x="655" y="510" width="30" height="30" fill="#00B894" rx="3"/>
    <rect x="690" y="510" width="30" height="30" fill="#00B894" rx="3"/>
    <rect x="725" y="510" width="30" height="30" fill="#00B894" rx="3"/>
    <rect x="760" y="510" width="30" height="30" fill="#00B894" rx="3"/>
  </g>
  
  <!-- Habit 5: Your Own -->
  <g font-family="Arial, sans-serif">
    <rect x="50" y="560" width="750" height="50" fill="#636E72" rx="10"/>
    <text x="70" y="592" font-size="16" font-weight="bold" fill="#FFFFFF">✏️ Your habit here...</text>
    <text x="750" y="592" font-size="14" fill="#FFFFFF" text-anchor="end">Goal: ___ days</text>
  </g>
  <g>
    <rect x="60" y="620" width="30" height="30" fill="#FFFFFF" stroke="#E0E0E0" rx="3"/>
    <rect x="95" y="620" width="30" height="30" fill="#FFFFFF" stroke="#E0E0E0" rx="3"/>
    <rect x="130" y="620" width="30" height="30" fill="#FFFFFF" stroke="#E0E0E0" rx="3"/>
    <rect x="165" y="620" width="30" height="30" fill="#FFFFFF" stroke="#E0E0E0" rx="3"/>
    <rect x="200" y="620" width="30" height="30" fill="#FFFFFF" stroke="#E0E0E0" rx="3"/>
    <rect x="235" y="620" width="30" height="30" fill="#FFFFFF" stroke="#E0E0E0" rx="3"/>
    <rect x="270" y="620" width="30" height="30" fill="#FFFFFF" stroke="#E0E0E0" rx="3"/>
    <rect x="305" y="620" width="30" height="30" fill="#FFFFFF" stroke="#E0E0E0" rx="3"/>
    <rect x="340" y="620" width="30" height="30" fill="#FFFFFF" stroke="#E0E0E0" rx="3"/>
    <rect x="375" y="620" width="30" height="30" fill="#FFFFFF" stroke="#E0E0E0" rx="3"/>
    <rect x="410" y="620" width="30" height="30" fill="#FFFFFF" stroke="#E0E0E0" rx="3"/>
    <rect x="445" y="620" width="30" height="30" fill="#FFFFFF" stroke="#E0E0E0" rx="3"/>
    <rect x="480" y="620" width="30" height="30" fill="#FFFFFF" stroke="#E0E0E0" rx="3"/>
    <rect x="515" y="620" width="30" height="30" fill="#FFFFFF" stroke="#E0E0E0" rx="3"/>
    <rect x="550" y="620" width="30" height="30" fill="#FFFFFF" stroke="#E0E0E0" rx="3"/>
    <rect x="585" y="620" width="30" height="30" fill="#FFFFFF" stroke="#E0E0E0" rx="3"/>
    <rect x="620" y="620" width="30" height="30" fill="#FFFFFF" stroke="#E0E0E0" rx="3"/>
    <rect x="655" y="620" width="30" height="30" fill="#FFFFFF" stroke="#E0E0E0" rx="3"/>
    <rect x="690" y="620" width="30" height="30" fill="#FFFFFF" stroke="#E0E0E0" rx="3"/>
    <rect x="725" y="620" width="30" height="30" fill="#FFFFFF" stroke="#E0E0E0" rx="3"/>
    <rect x="760" y="620" width="30" height="30" fill="#FFFFFF" stroke="#E0E0E0" rx="3"/>
  </g>
  
  <!-- Day Numbers -->
  <g font-family="Arial, sans-serif" font-size="12" fill="#636E72" text-anchor="middle">
    <text x="75" y="670">1</text>
    <text x="110" y="670">2</text>
    <text x="145" y="670">3</text>
    <text x="180" y="670">4</text>
    <text x="215" y="670">5</text>
    <text x="250" y="670">6</text>
    <text x="285" y="670">7</text>
    <text x="320" y="670">8</text>
    <text x="355" y="670">9</text>
    <text x="390" y="670">10</text>
    <text x="425" y="670">11</text>
    <text x="460" y="670">12</text>
    <text x="495" y="670">13</text>
    <text x="530" y="670">14</text>
    <text x="565" y="670">15</text>
    <text x="600" y="670">16</text>
    <text x="635" y="670">17</text>
    <text x="670" y="670">18</text>
    <text x="705" y="670">19</text>
    <text x="740" y="670">20</text>
    <text x="775" y="670">21</text>
  </g>
  
  <!-- Weekly Dividers -->
  <line x1="370" y1="180" x2="370" y2="670" stroke="#B2BEC3" stroke-width="1" stroke-dasharray="5,5"/>
  <line x1="690" y1="180" x2="690" y2="670" stroke="#B2BEC3" stroke-width="1" stroke-dasharray="5,5"/>
  
  <!-- Motivation Box -->
  <rect x="50" y="700" width="750" height="150" fill="#F8F6F4" stroke="#A29BFE" stroke-width="2" rx="15"/>
  <text x="425" y="740" font-family="Arial, sans-serif" font-size="20" font-weight="bold" fill="#2D3436" text-anchor="middle">🌟 WEEKLY REFLECTION</text>
  <text x="80" y="775" font-family="Arial, sans-serif" font-size="14" fill="#636E72">Best habit this week:</text>
  <text x="80" y="800" font-family="Arial, sans-serif" font-size="14" fill="#636E72">Needs improvement:</text>
  <text x="80" y="825" font-family="Arial, sans-serif" font-size="14" fill="#636E72">This week's goal:</text>
  
  <!-- Legend -->
  <rect x="50" y="870" width="750" height="80" fill="#FFFFFF" stroke="#E0E0E0" rx="10"/>
  <text x="70" y="900" font-family="Arial, sans-serif" font-size="16" font-weight="bold" fill="#2D3436">📖 How to Use:</text>
  <text x="70" y="925" font-family="Arial, sans-serif" font-size="14" fill="#636E72">✓ Fill in the box when you complete the habit</text>
  <text x="70" y="945" font-family="Arial, sans-serif" font-size="14" fill="#636E72">💡 Aim to meet your weekly goal, don't aim for perfection!</text>
</svg>
