<?xml version="1.0" encoding="UTF-8"?>
<svg xmlns="http://www.w3.org/2000/svg" viewBox="0 0 500 500">
  <!-- Abstract Coffee Steam Wisps -->
  
  <!-- Wisp 1 -->
  <path d="M150 400 Q120 350 150 300 Q180 250 150 200 Q120 150 150 100" 
        fill="none" stroke="#636E72" stroke-width="4" stroke-linecap="round"/>
  
  <!-- Wisp 2 -->
  <path d="M200 400 Q240 340 200 280 Q160 220 200 160 Q240 100 200 50" 
        fill="none" stroke="#636E72" stroke-width="4" stroke-linecap="round"/>
  
  <!-- Wisp 3 -->
  <path d="M250 400 Q220 350 250 300 Q280 250 250 200 Q220 150 250 100" 
        fill="none" stroke="#636E72" stroke-width="4" stroke-linecap="round"/>
  
  <!-- Wisp 4 -->
  <path d="M300 400 Q340 340 300 280 Q260 220 300 160 Q340 100 300 50" 
        fill="none" stroke="#636E72" stroke-width="4" stroke-linecap="round"/>
  
  <!-- Wisp 5 -->
  <path d="M350 400 Q320 350 350 300 Q380 250 350 200 Q320 150 350 100" 
        fill="none" stroke="#636E72" stroke-width="4" stroke-linecap="round"/>
  
  <!-- Small decorative dots -->
  <circle cx="130" cy="180" r="6" fill="#636E72" opacity="0.5"/>
  <circle cx="230" cy="120" r="5" fill="#636E72" opacity="0.5"/>
  <circle cx="280" cy="200" r="7" fill="#636E72" opacity="0.5"/>
  <circle cx="370" cy="140" r="5" fill="#636E72" opacity="0.5"/>
</svg>
